<svg width="44" height="52" viewBox="0 0 44 52" fill="none" xmlns="http://www.w3.org/2000/svg">
<path d="M13 14V2C13 1.44772 13.4477 1 14 1H42C42.5523 1 43 1.44772 43 2V50C43 50.5523 42.5523 51 42 51H14C13.4477 51 13 50.5523 13 50V37.5M13 22V26V29.5" stroke="url(#paint0_linear_4682_3205)" stroke-width="2" stroke-linecap="round" stroke-linejoin="round"/>
<path d="M23.8757 26.8579C23.6635 26.6207 23.5465 26.3157 23.5465 26C23.5465 25.6843 23.6635 25.3793 23.8757 25.1421L25.5694 23.2704C25.756 23.0659 25.8719 22.8085 25.9005 22.5353C25.929 22.2621 25.8687 21.987 25.7282 21.7496L23.0817 17.2522C22.9427 17.015 22.7309 16.827 22.4767 16.715C22.2224 16.6029 21.9387 16.5726 21.6659 16.6283L19.1782 17.1222C18.8617 17.1865 18.5321 17.1347 18.2518 16.9766C17.9714 16.8186 17.7597 16.5652 17.6565 16.2643L16.8493 13.8856C16.7605 13.6275 16.5914 13.4032 16.3658 13.2446C16.1403 13.086 15.8696 13.0011 15.5922 13.0018H10.2993C10.0108 12.987 9.72521 13.0654 9.48627 13.225C9.24733 13.3846 9.06815 13.6166 8.97608 13.8856L8.23507 16.2643C8.13186 16.5652 7.9201 16.8186 7.63976 16.9766C7.35943 17.1347 7.02989 17.1865 6.71335 17.1222L4.15951 16.6283C3.90089 16.5924 3.63723 16.6325 3.40176 16.7435C3.16629 16.8545 2.96953 17.0315 2.83628 17.2522L0.189819 21.7496C0.0457984 21.9844 -0.0189579 22.2579 0.00480802 22.5311C0.0285739 22.8042 0.139645 23.063 0.322142 23.2704L2.00265 25.1421C2.21479 25.3793 2.33178 25.6843 2.33178 26C2.33178 26.3157 2.21479 26.6207 2.00265 26.8579L0.322142 28.7296C0.139645 28.937 0.0285739 29.1958 0.00480802 29.4689C-0.0189579 29.7421 0.0457984 30.0156 0.189819 30.2504L2.83628 34.7478C2.97535 34.985 3.1871 35.173 3.44133 35.285C3.69557 35.3971 3.97932 35.4274 4.25214 35.3717L6.73982 34.8778C7.05636 34.8135 7.38589 34.8653 7.66623 35.0234C7.94657 35.1814 8.15832 35.4348 8.26153 35.7357L9.0687 38.1144C9.16077 38.3834 9.33996 38.6154 9.5789 38.775C9.81783 38.9346 10.1034 39.013 10.3919 38.9982H15.6849C15.9623 38.9989 16.2329 38.914 16.4585 38.7554C16.684 38.5968 16.8532 38.3725 16.9419 38.1144L17.7491 35.7357C17.8523 35.4348 18.0641 35.1814 18.3444 35.0234C18.6247 34.8653 18.9543 34.8135 19.2708 34.8778L21.7585 35.3717C22.0313 35.4274 22.3151 35.3971 22.5693 35.285C22.8235 35.173 23.0353 34.985 23.1744 34.7478L25.8208 30.2504C25.9613 30.013 26.0216 29.7379 25.9931 29.4647C25.9646 29.1915 25.8487 28.9341 25.662 28.7296L23.8757 26.8579ZM21.9041 28.5996L22.9626 29.7695L21.2689 32.6551L19.7075 32.3431C18.7545 32.1518 17.7631 32.3108 16.9216 32.79C16.08 33.2692 15.4469 34.0353 15.1423 34.9428L14.6395 36.3986H11.252L10.7757 34.9168C10.4711 34.0093 9.83801 33.2432 8.99646 32.764C8.15492 32.2848 7.16354 32.1258 6.21052 32.3171L4.64911 32.6291L2.92891 29.7565L3.98749 28.5866C4.63846 27.8717 4.99835 26.9462 4.99835 25.987C4.99835 25.0278 4.63846 24.1023 3.98749 23.3874L2.92891 22.2175L4.62265 19.3579L6.18406 19.6699C7.13708 19.8612 8.12845 19.7022 8.97 19.223C9.81154 18.7438 10.4447 17.9777 10.7492 17.0702L11.252 15.6014H14.6395L15.1423 17.0832C15.4469 17.9907 16.08 18.7568 16.9216 19.236C17.7631 19.7152 18.7545 19.8742 19.7075 19.6829L21.2689 19.3709L22.9626 22.2565L21.9041 23.4264C21.2604 24.1396 20.905 25.0598 20.905 26.013C20.905 26.9662 21.2604 27.8864 21.9041 28.5996V28.5996ZM12.9458 20.8007C11.8989 20.8007 10.8756 21.1056 10.0052 21.6769C9.13476 22.2483 8.45636 23.0603 8.05575 24.0103C7.65514 24.9604 7.55032 26.0058 7.75455 27.0143C7.95878 28.0229 8.46288 28.9493 9.20311 29.6765C9.94334 30.4036 10.8864 30.8988 11.9132 31.0994C12.9399 31.3 14.0041 31.197 14.9713 30.8035C15.9384 30.41 16.7651 29.7436 17.3467 28.8886C17.9283 28.0336 18.2387 27.0283 18.2387 26C18.2387 24.6211 17.6811 23.2986 16.6884 22.3235C15.6958 21.3485 14.3495 20.8007 12.9458 20.8007V20.8007ZM12.9458 28.5996C12.4224 28.5996 11.9107 28.4472 11.4755 28.1615C11.0403 27.8759 10.7011 27.4699 10.5008 26.9948C10.3005 26.5198 10.248 25.9971 10.3502 25.4928C10.4523 24.9886 10.7043 24.5253 11.0744 24.1618C11.4446 23.7982 11.9161 23.5506 12.4295 23.4503C12.9428 23.35 13.475 23.4015 13.9585 23.5982C14.4421 23.795 14.8554 24.1282 15.1462 24.5557C15.437 24.9832 15.5922 25.4858 15.5922 26C15.5922 26.6895 15.3134 27.3507 14.8171 27.8382C14.3208 28.3258 13.6477 28.5996 12.9458 28.5996Z" fill="url(#paint1_linear_4682_3205)"/>
<path d="M13 9H43" stroke="url(#paint2_linear_4682_3205)" stroke-width="2" stroke-linecap="round" stroke-linejoin="round"/>
<path d="M13 41H43" stroke="url(#paint3_linear_4682_3205)" stroke-width="2" stroke-linecap="round" stroke-linejoin="round"/>
<line x1="24" y1="45" x2="32" y2="45" stroke="url(#paint4_linear_4682_3205)" stroke-width="2" stroke-linecap="round" stroke-linejoin="round"/>
<line x1="24" y1="13" x2="38" y2="13" stroke="url(#paint5_linear_4682_3205)" stroke-width="2" stroke-linecap="round" stroke-linejoin="round"/>
<line x1="32" y1="17" x2="38" y2="17" stroke="url(#paint6_linear_4682_3205)" stroke-width="2" stroke-linecap="round" stroke-linejoin="round"/>
<defs>
<linearGradient id="paint0_linear_4682_3205" x1="13" y1="8.03125" x2="54.2015" y2="29.2758" gradientUnits="userSpaceOnUse">
<stop stop-color="#1E74EC"/>
<stop offset="1" stop-color="#002984"/>
</linearGradient>
<linearGradient id="paint1_linear_4682_3205" x1="-1.81986e-07" y1="16.6563" x2="26" y2="39" gradientUnits="userSpaceOnUse">
<stop stop-color="#1E74EC"/>
<stop offset="1" stop-color="#002984"/>
</linearGradient>
<linearGradient id="paint2_linear_4682_3205" x1="13" y1="9.14063" x2="13.0784" y2="11.1606" gradientUnits="userSpaceOnUse">
<stop stop-color="#1E74EC"/>
<stop offset="1" stop-color="#002984"/>
</linearGradient>
<linearGradient id="paint3_linear_4682_3205" x1="13" y1="41.1406" x2="13.0784" y2="43.1606" gradientUnits="userSpaceOnUse">
<stop stop-color="#1E74EC"/>
<stop offset="1" stop-color="#002984"/>
</linearGradient>
<linearGradient id="paint4_linear_4682_3205" x1="23" y1="46.1406" x2="23.2323" y2="48.1366" gradientUnits="userSpaceOnUse">
<stop stop-color="#1E74EC"/>
<stop offset="1" stop-color="#002984"/>
</linearGradient>
<linearGradient id="paint5_linear_4682_3205" x1="23" y1="14.1406" x2="23.1464" y2="16.153" gradientUnits="userSpaceOnUse">
<stop stop-color="#1E74EC"/>
<stop offset="1" stop-color="#002984"/>
</linearGradient>
<linearGradient id="paint6_linear_4682_3205" x1="31" y1="18.1406" x2="31.2882" y2="20.1217" gradientUnits="userSpaceOnUse">
<stop stop-color="#1E74EC"/>
<stop offset="1" stop-color="#002984"/>
</linearGradient>
</defs>
</svg>
