<svg width="32" height="32" viewBox="0 0 32 32" fill="none" xmlns="http://www.w3.org/2000/svg">
<g clip-path="url(#clip0_117_6651)">
<path fill-rule="evenodd" clip-rule="evenodd" d="M22.4581 8.73058C20.8061 7.15498 18.6014 6.29663 16.3203 6.3319C12.1461 6.3319 8.60105 9.14797 7.33703 12.94C6.66681 14.9271 6.66681 17.0789 7.33703 19.0661H7.34289C8.61278 22.8522 12.152 25.6683 16.3262 25.6683C18.4809 25.6683 20.3307 25.1172 21.7644 24.1437V24.1398C23.4517 23.0228 24.604 21.2649 24.9626 19.2778H16.3203V13.1165H31.412C31.6002 14.1865 31.6883 15.28 31.6883 16.3676C31.6883 21.2341 29.9492 25.3484 26.9231 28.1351L26.9262 28.1375C24.2747 30.5833 20.6356 32.0001 16.3203 32.0001C10.2707 32.0001 4.73845 28.5902 2.0223 23.1873C-0.247022 18.6663 -0.247016 13.3398 2.02231 8.81881C4.73846 3.41003 10.2707 0.000101659 16.3203 0.000101659C20.2946 -0.0469312 24.1336 1.44636 27.0262 4.16251L22.4581 8.73058Z" fill="white"/>
</g>
<defs>
<clipPath id="clip0_117_6651">
<rect width="32" height="32" fill="white"/>
</clipPath>
</defs>
</svg>
