<svg width="80" height="63" viewBox="0 0 80 63" fill="none" xmlns="http://www.w3.org/2000/svg">
<path fill-rule="evenodd" clip-rule="evenodd" d="M0 31.5V63H40H80V31.5V0H40H0V31.5ZM40.3559 2.26886L77.7224 2.29091V31.6432V60.9955H39.7116H1.70078L1.71217 31.683C1.71844 15.5613 1.79303 2.30093 1.87758 2.21588C1.96242 2.13055 2.24712 2.10277 2.51046 2.15403C2.77381 2.20529 19.8044 2.25683 40.3559 2.26886ZM15.8406 17.0764C14.0253 17.6371 11.7925 19.8267 11.5143 21.3192C10.757 25.3787 12.7744 27.5614 19.0747 29.4992C23.8132 30.9568 25.6652 32.6626 25.2026 35.1431C24.2656 40.1671 13.7247 39.7072 12.9139 34.607C12.6539 32.9719 10.8185 32.8923 10.8185 34.516C10.8185 40.9918 23.1126 43.0645 26.6981 37.1935C29.1063 33.2503 26.5859 29.6727 19.9288 27.5851C14.6844 25.9405 13.6655 25.1158 13.6655 22.5165C13.6655 17.0902 24.2474 17.4473 24.9742 22.8982C25.1251 24.0308 25.1519 24.0545 26.2685 24.0545H27.4084L27.2276 22.7272C26.5882 18.0352 21.274 15.3978 15.8406 17.0764ZM31.3167 28.6364V40.3773H32.2699H33.2231L33.4166 36.497C33.5231 34.3628 33.5351 32.4943 33.4431 32.3448C33.3486 32.191 33.7495 32.0727 34.3638 32.0727C35.4198 32.0727 35.5505 32.1947 38.8174 36.225L42.1831 40.3773H43.4403C45.1069 40.3773 45.1997 40.5709 41.1234 35.5437C39.1593 33.1217 37.5906 30.9768 37.6373 30.7772C37.6843 30.5776 39.1638 28.7927 40.9253 26.8108C44.6454 22.6253 44.5133 22.9091 42.7399 22.9091H41.3515L38.2559 26.4795C35.717 29.4075 35.0192 30.0513 34.3772 30.059L33.5943 30.0682V23.4818V16.8955H32.4555H31.3167V28.6364ZM11.9573 46.4734C10.4259 47.2486 10.9073 48.9332 12.8253 49.5114C13.8483 49.8195 13.9744 49.9515 13.8964 50.6314C13.803 51.4435 12.5449 51.6895 11.3167 51.136C10.5788 50.8035 10.6961 51.4596 11.4471 51.8636C12.8934 52.6422 14.8043 51.8771 14.8043 50.5191C14.8043 49.6872 14.1048 48.9851 13.0682 48.7763C11.0819 48.3768 11.2399 46.8078 13.2436 47.0349C14.6636 47.1959 14.8974 46.9424 13.7944 46.437C12.8996 46.0267 12.8367 46.0281 11.9573 46.4734ZM22.2155 46.7334C19.0699 48.8688 21.6877 53.3873 25.151 51.8003C26.2844 51.2809 26.853 49.7548 26.4544 48.303C25.9431 46.4396 23.8112 45.6501 22.2155 46.7334ZM38.9361 46.5527C36.2283 48.0306 37.2154 52.1182 40.2796 52.1182C43.2088 52.1182 44.2742 48.2042 41.764 46.6647C40.6861 46.0037 39.9926 45.9763 38.9361 46.5527ZM50.6266 46.5948C48.548 47.8917 48.8382 51.0415 51.1246 52.0025C54.3186 53.3447 56.6494 48.532 53.6945 46.6953C52.5534 45.986 51.6498 45.9562 50.6266 46.5948ZM16.2278 49.2545C16.2278 50.9727 16.3416 52.1182 16.5125 52.1182C16.669 52.1182 16.7972 51.6185 16.7972 51.0077C16.7972 49.1036 17.4631 48.9722 18.5603 50.6597C19.0781 51.4561 19.6621 52.1102 19.8577 52.113C20.3917 52.1208 20.306 51.8865 19.2171 50.3619C18.0151 48.6792 18.0231 48.872 19.0986 47.506C20.3351 45.9356 19.5812 46.1154 18.07 47.7511L16.8134 49.1114L16.8051 47.7511C16.8009 47.0029 16.669 46.3909 16.5125 46.3909C16.3416 46.3909 16.2278 47.5364 16.2278 49.2545ZM27.9004 49.2545V52.1182H29.7509C31.9579 52.1182 32.2437 51.6125 30.1068 51.4888L28.6121 51.4023L28.5298 48.8966C28.4157 45.4164 27.9004 45.7094 27.9004 49.2545ZM32.7402 49.2545C32.7402 50.9727 32.8541 52.1182 33.0249 52.1182C33.1815 52.1182 33.3096 51.6185 33.3096 51.0077C33.3096 49.2179 33.9348 49.0089 34.9865 50.4475C35.4736 51.1133 35.8719 51.7617 35.8719 51.8882C35.8719 52.0148 36.1324 52.1182 36.4504 52.1182C36.9611 52.1182 36.8942 51.9383 35.881 50.5887C34.505 48.7554 34.5088 48.7995 35.608 47.4585C36.8584 45.9324 36.1631 46.1383 34.6187 47.7511L33.3164 49.1114L33.313 47.7511C33.311 47.0029 33.1815 46.3909 33.0249 46.3909C32.8541 46.3909 32.7402 47.5364 32.7402 49.2545ZM44.1515 47.8726C44.4823 48.7113 44.9683 49.9765 45.2316 50.6841C45.9937 52.7333 46.4407 52.5082 47.6344 49.4745C48.812 46.4823 48.8319 46.3909 48.3055 46.3909C48.0891 46.3909 47.5875 47.374 47.1308 48.6936C46.2169 51.3341 46.24 51.3353 45.2541 48.5948C44.7815 47.2812 44.3382 46.5003 44.0313 46.4407C43.5986 46.3565 43.6108 46.5014 44.1515 47.8726ZM25.1601 47.3316C26.0524 47.9877 26.0991 49.947 25.2433 50.8078C23.7395 52.3204 21.637 51.3831 21.637 49.2004C21.637 47.3196 23.6746 46.2388 25.1601 47.3316ZM41.452 47.1827C43.124 48.3055 42.2952 51.5455 40.3359 51.5455C38.4424 51.5455 37.372 48.8911 38.7189 47.5364C39.2883 46.9636 40.829 46.7643 41.452 47.1827ZM53.5231 47.5364C55.4434 49.4679 52.7397 52.7883 50.7656 50.9229C49.3452 49.5807 50.2269 46.9636 52.0996 46.9636C52.5742 46.9636 53.2068 47.2182 53.5231 47.5364Z" fill="white"/>
</svg>
