<svg width="32" height="32" viewBox="0 0 32 32" fill="none" xmlns="http://www.w3.org/2000/svg">
<path d="M15.9996 0.639893C7.51645 0.639893 0.639648 7.51669 0.639648 15.9999C0.639648 24.4831 7.51645 31.3599 15.9996 31.3599C24.4828 31.3599 31.3596 24.4831 31.3596 15.9999C31.3596 7.51669 24.4828 0.639893 15.9996 0.639893ZM12.2396 22.3663H9.12925V12.3567H12.2396V22.3663ZM10.6652 11.1279C9.68285 11.1279 9.04765 10.4319 9.04765 9.57109C9.04765 8.69269 9.70205 8.01749 10.7052 8.01749C11.7084 8.01749 12.3228 8.69269 12.342 9.57109C12.342 10.4319 11.7084 11.1279 10.6652 11.1279ZM23.5996 22.3663H20.4892V16.8191C20.4892 15.5279 20.038 14.6511 18.9132 14.6511C18.054 14.6511 17.5436 15.2447 17.3181 15.8159C17.2348 16.0191 17.214 16.3071 17.214 16.5935V22.3647H14.102V15.5487C14.102 14.2991 14.062 13.2543 14.0204 12.3551H16.7228L16.8652 13.7455H16.9276C17.3372 13.0927 18.3405 12.1295 20.0189 12.1295C22.0653 12.1295 23.5996 13.5007 23.5996 16.4479V22.3663Z" fill="#1E74EC"/>
</svg>
