<svg width="64" height="71" viewBox="0 0 64 71" fill="none" xmlns="http://www.w3.org/2000/svg">
<mask id="path-1-inside-1_4682_3206" fill="white">
<path d="M0.750031 50.6978C0.750031 50.3526 1.02985 50.0728 1.37503 50.0728H12.9456C13.2908 50.0728 13.5706 50.3526 13.5706 50.6978V70.3759C13.5706 70.7211 13.2908 71.0009 12.9456 71.0009H1.37503C1.02985 71.0009 0.750031 70.7211 0.750031 70.3759V50.6978Z"/>
<path d="M16.7757 39.4288C16.7757 39.0836 17.0555 38.8038 17.4007 38.8038H28.9713C29.3164 38.8038 29.5963 39.0836 29.5963 39.4288V70.3759C29.5963 70.7211 29.3164 71.0009 28.9713 71.0009H17.4007C17.0555 71.0009 16.7757 70.7211 16.7757 70.3759V39.4288Z"/>
<path d="M34.404 28.1599C34.404 27.8147 34.6838 27.5349 35.029 27.5349H46.5995C46.9447 27.5349 47.2245 27.8147 47.2245 28.1599V70.3759C47.2245 70.7211 46.9447 71.0009 46.5995 71.0009H35.029C34.6838 71.0009 34.404 70.7211 34.404 70.3759V28.1599Z"/>
<path d="M50.4297 18.5007C50.4297 18.1556 50.7095 17.8757 51.0547 17.8757H62.6252C62.9704 17.8757 63.2502 18.1556 63.2502 18.5007V70.3759C63.2502 70.7211 62.9704 71.0009 62.6252 71.0009H51.0547C50.7095 71.0009 50.4297 70.7211 50.4297 70.3759V18.5007Z"/>
</mask>
<path d="M1.37503 52.0728H12.9456V48.0728H1.37503V52.0728ZM11.5706 50.6978V70.3759H15.5706V50.6978H11.5706ZM12.9456 69.0009H1.37503V73.0009H12.9456V69.0009ZM2.75003 70.3759V50.6978H-1.24997V70.3759H2.75003ZM17.4007 40.8038H28.9713V36.8038H17.4007V40.8038ZM27.5963 39.4288V70.3759H31.5963V39.4288H27.5963ZM28.9713 69.0009H17.4007V73.0009H28.9713V69.0009ZM18.7757 70.3759V39.4288H14.7757V70.3759H18.7757ZM35.029 29.5349H46.5995V25.5349H35.029V29.5349ZM45.2245 28.1599V70.3759H49.2245V28.1599H45.2245ZM46.5995 69.0009H35.029V73.0009H46.5995V69.0009ZM36.404 70.3759V28.1599H32.404V70.3759H36.404ZM51.0547 19.8757H62.6252V15.8757H51.0547V19.8757ZM61.2502 18.5007V70.3759H65.2502V18.5007H61.2502ZM62.6252 69.0009H51.0547V73.0009H62.6252V69.0009ZM52.4297 70.3759V18.5007H48.4297V70.3759H52.4297ZM51.0547 69.0009C51.8141 69.0009 52.4297 69.6165 52.4297 70.3759H48.4297C48.4297 71.8256 49.6049 73.0009 51.0547 73.0009V69.0009ZM61.2502 70.3759C61.2502 69.6165 61.8658 69.0009 62.6252 69.0009V73.0009C64.075 73.0009 65.2502 71.8256 65.2502 70.3759H61.2502ZM62.6252 19.8757C61.8658 19.8757 61.2502 19.2601 61.2502 18.5007H65.2502C65.2502 17.051 64.075 15.8757 62.6252 15.8757V19.8757ZM51.0547 15.8757C49.6049 15.8757 48.4297 17.051 48.4297 18.5007H52.4297C52.4297 19.2601 51.8141 19.8757 51.0547 19.8757V15.8757ZM35.029 69.0009C35.7884 69.0009 36.404 69.6165 36.404 70.3759H32.404C32.404 71.8256 33.5792 73.0009 35.029 73.0009V69.0009ZM45.2245 70.3759C45.2245 69.6165 45.8401 69.0009 46.5995 69.0009V73.0009C48.0493 73.0009 49.2245 71.8256 49.2245 70.3759H45.2245ZM46.5995 29.5349C45.8401 29.5349 45.2245 28.9192 45.2245 28.1599H49.2245C49.2245 26.7101 48.0493 25.5349 46.5995 25.5349V29.5349ZM35.029 25.5349C33.5792 25.5349 32.404 26.7101 32.404 28.1599H36.404C36.404 28.9192 35.7884 29.5349 35.029 29.5349V25.5349ZM17.4007 69.0009C18.1601 69.0009 18.7757 69.6165 18.7757 70.3759H14.7757C14.7757 71.8256 15.951 73.0009 17.4007 73.0009V69.0009ZM27.5963 70.3759C27.5963 69.6165 28.2119 69.0009 28.9713 69.0009V73.0009C30.421 73.0009 31.5963 71.8256 31.5963 70.3759H27.5963ZM28.9713 40.8038C28.2119 40.8038 27.5963 40.1882 27.5963 39.4288H31.5963C31.5963 37.9791 30.421 36.8038 28.9713 36.8038V40.8038ZM17.4007 36.8038C15.951 36.8038 14.7757 37.9791 14.7757 39.4288H18.7757C18.7757 40.1882 18.1601 40.8038 17.4007 40.8038V36.8038ZM1.37503 69.0009C2.13442 69.0009 2.75003 69.6165 2.75003 70.3759H-1.24997C-1.24997 71.8256 -0.074717 73.0009 1.37503 73.0009V69.0009ZM11.5706 70.3759C11.5706 69.6165 12.1862 69.0009 12.9456 69.0009V73.0009C14.3953 73.0009 15.5706 71.8256 15.5706 70.3759H11.5706ZM12.9456 52.0728C12.1862 52.0728 11.5706 51.4572 11.5706 50.6978H15.5706C15.5706 49.2481 14.3953 48.0728 12.9456 48.0728V52.0728ZM1.37503 48.0728C-0.074716 48.0728 -1.24997 49.2481 -1.24997 50.6978H2.75003C2.75003 51.4572 2.13442 52.0728 1.37503 52.0728V48.0728Z" fill="url(#paint0_linear_4682_3206)" mask="url(#path-1-inside-1_4682_3206)"/>
<path d="M1.37503 35.3758L53.8752 3.399M53.8752 3.399L53.0675 9.79436M53.8752 3.399L47.4136 1.00073" stroke="url(#paint1_linear_4682_3206)" stroke-width="2" stroke-linecap="round" stroke-linejoin="round"/>
<defs>
<linearGradient id="paint0_linear_4682_3206" x1="0.75003" y1="25.3465" x2="54.4832" y2="79.6723" gradientUnits="userSpaceOnUse">
<stop stop-color="#1E74EC"/>
<stop offset="1" stop-color="#002984"/>
</linearGradient>
<linearGradient id="paint1_linear_4682_3206" x1="1.37503" y1="5.83473" x2="34.8985" y2="49.8343" gradientUnits="userSpaceOnUse">
<stop stop-color="#1E74EC"/>
<stop offset="1" stop-color="#002984"/>
</linearGradient>
</defs>
</svg>
