<?xml version="1.0" encoding="utf-8"?><svg viewBox="0 0 126 118" xmlns="http://www.w3.org/2000/svg" xmlns:xlink="http://www.w3.org/1999/xlink"><style>:root>svg{display:none}:root>svg:target{display:block}</style><svg fill="none" viewBox="0 0 80 80" id="chat-bot" xmlns="http://www.w3.org/2000/svg"><path d="M57.667 58.57l.7.715-.7-.714zM45.8 68.786a1 1 0 001.4 1.43l-1.4-1.43zM40 59a1 1 0 100-2v2zm-6.514-15.164a1 1 0 00-1.972.328l1.973-.328zm15 .328a1 1 0 00-1.972-.328l1.972.328zM10 17h61v-2H10v2zm62 1v38h2V18h-2zM9 56V18H7v38h2zm62 1H59.066v2H71v-2zm-14.032.856L45.8 68.786l1.4 1.429 11.166-10.93-1.398-1.429zM40 57H10v2h30v-2zM7 56a3 3 0 003 3v-2a1 1 0 01-1-1H7zm65 0a1 1 0 01-1 1v2a3 3 0 003-3h-2zm-1-39a1 1 0 011 1h2a3 3 0 00-3-3v2zM59.066 57a3 3 0 00-2.099.856l1.4 1.43a1 1 0 01.699-.286v-2zM10 15a3 3 0 00-3 3h2a1 1 0 011-1v-2zm25 18a4 4 0 01-4 4v2a6 6 0 006-6h-2zm-4 4a4 4 0 01-4-4h-2a6 6 0 006 6v-2zm-4-4a4 4 0 014-4v-2a6 6 0 00-6 6h2zm4-4a4 4 0 014 4h2a6 6 0 00-6-6v2zm22 4a4 4 0 01-4 4v2a6 6 0 006-6h-2zm-4 4a4 4 0 01-4-4h-2a6 6 0 006 6v-2zm-4-4a4 4 0 014-4v-2a6 6 0 00-6 6h2zm4-4a4 4 0 014 4h2a6 6 0 00-6-6v2zM32.5 44c-.986.164-.986.165-.986.166v.005l.002.009a1.334 1.334 0 00.017.083 4.416 4.416 0 00.266.773 5.562 5.562 0 001.188 1.678C34.23 47.932 36.376 49 40 49v-2c-3.21 0-4.815-.932-5.613-1.714-.41-.401-.64-.794-.765-1.072a2.402 2.402 0 01-.138-.393v.005l.002.004v.005L32.5 44zm7.5 5c3.624 0 5.77-1.068 7.013-2.286.612-.599.975-1.206 1.188-1.678a4.416 4.416 0 00.266-.773 2.433 2.433 0 00.017-.083l.001-.009v-.004l.001-.001c0-.001 0-.002-.986-.166s-.986-.165-.986-.166v-.001-.003l.001-.004.001-.005-.001.006a2.402 2.402 0 01-.137.387 3.563 3.563 0 01-.765 1.072C44.815 46.068 43.211 47 40 47v2z" fill="#E6E8EF"/></svg><svg fill="none" viewBox="0 0 18 18" id="checkbox" xmlns="http://www.w3.org/2000/svg"><path fill="url(#bpaint0_linear_92_4554)" d="M0 0h18v18H0z"/><path d="M4 7.5L8 12l6-8" stroke="#fff"/><defs><linearGradient id="bpaint0_linear_92_4554" x1="0" y1="2.531" x2="18" y2="18" gradientUnits="userSpaceOnUse"><stop stop-color="#1E74EC"/><stop offset="1" stop-color="#002984"/></linearGradient></defs></svg><svg fill="none" viewBox="0 0 32 32" id="dribble" xmlns="http://www.w3.org/2000/svg"><path fill-rule="evenodd" clip-rule="evenodd" d="M16 0C7.167 0 0 7.167 0 16s7.167 16 16 16c8.816 0 16-7.167 16-16S24.816 0 16 0zm10.568 7.375a13.604 13.604 0 013.09 8.504c-.452-.087-4.964-1.007-9.51-.434-.105-.226-.191-.469-.296-.712-.277-.66-.59-1.336-.902-1.978 5.033-2.048 7.323-4.998 7.618-5.38zM16 2.36c3.47 0 6.646 1.302 9.059 3.436-.243.347-2.309 3.106-7.168 4.929-2.238-4.113-4.72-7.48-5.101-8 1.023-.243 2.1-.365 3.21-.365zm-5.813 1.284c.364.486 2.793 3.87 5.067 7.896-6.386 1.7-12.026 1.666-12.634 1.666.885-4.234 3.749-7.757 7.567-9.562zM2.325 16.017v-.416c.59.017 7.22.104 14.04-1.944.399.764.763 1.545 1.11 2.326-.174.052-.364.104-.538.156-7.045 2.273-10.794 8.486-11.106 9.006a13.634 13.634 0 01-3.506-9.128zM16 29.675a13.57 13.57 0 01-8.382-2.881c.243-.503 3.02-5.848 10.725-8.538.034-.017.052-.017.087-.035 1.926 4.98 2.707 9.163 2.915 10.36A13.441 13.441 0 0116 29.675zm7.618-2.343c-.139-.833-.867-4.824-2.655-9.736 4.287-.676 8.035.434 8.503.59-.59 3.801-2.776 7.08-5.848 9.146z" fill="#fff"/></svg><svg fill="none" viewBox="0 0 32 32" id="dribble-blue" xmlns="http://www.w3.org/2000/svg"><path fill-rule="evenodd" clip-rule="evenodd" d="M16 0C7.167 0 0 7.167 0 16s7.167 16 16 16c8.816 0 16-7.167 16-16S24.816 0 16 0zm10.568 7.375a13.604 13.604 0 013.09 8.504c-.452-.087-4.964-1.007-9.51-.434-.105-.226-.191-.469-.296-.712-.277-.66-.59-1.336-.902-1.978 5.033-2.048 7.323-4.998 7.618-5.38zM16 2.36c3.47 0 6.646 1.302 9.059 3.436-.243.347-2.309 3.106-7.168 4.929-2.238-4.113-4.72-7.48-5.101-8 1.023-.243 2.1-.365 3.21-.365zm-5.813 1.284c.364.486 2.793 3.87 5.067 7.896-6.386 1.7-12.026 1.666-12.634 1.666.885-4.234 3.749-7.757 7.567-9.562zM2.325 16.017v-.416c.59.017 7.22.104 14.04-1.944.399.764.763 1.545 1.11 2.326-.174.052-.364.104-.538.156-7.045 2.273-10.794 8.486-11.106 9.006a13.634 13.634 0 01-3.506-9.128zM16 29.675a13.57 13.57 0 01-8.382-2.881c.243-.503 3.02-5.848 10.725-8.538.034-.017.052-.017.087-.035 1.926 4.98 2.707 9.163 2.915 10.36A13.441 13.441 0 0116 29.675zm7.618-2.343c-.139-.833-.867-4.824-2.655-9.736 4.287-.676 8.035.434 8.503.59-.59 3.801-2.776 7.08-5.848 9.146z" fill="#1E74EC"/></svg><svg fill="none" viewBox="0 0 32 32" id="facebook" xmlns="http://www.w3.org/2000/svg"><path d="M32 16c0-8.837-7.163-16-16-16S0 7.163 0 16c0 7.986 5.85 14.605 13.5 15.806V20.625H9.437V16H13.5v-3.525c0-4.01 2.389-6.225 6.043-6.225 1.75 0 3.582.313 3.582.313V10.5h-2.017c-1.988 0-2.608 1.233-2.608 2.5v3h4.438l-.71 4.625H18.5v11.18C26.15 30.606 32 23.986 32 16z" fill="#fff"/></svg><svg fill="none" viewBox="0 0 32 32" id="facebook-blue" xmlns="http://www.w3.org/2000/svg"><path d="M32 16c0-8.837-7.163-16-16-16S0 7.163 0 16c0 7.986 5.85 14.605 13.5 15.806V20.625H9.437V16H13.5v-3.525c0-4.01 2.389-6.225 6.043-6.225 1.75 0 3.582.313 3.582.313V10.5h-2.017c-1.988 0-2.608 1.233-2.608 2.5v3h4.438l-.71 4.625H18.5v11.18C26.15 30.606 32 23.986 32 16z" fill="#1E74EC"/></svg><svg fill="none" viewBox="0 0 126 118" id="flying-rocket" xmlns="http://www.w3.org/2000/svg"><path opacity=".6" fill-rule="evenodd" clip-rule="evenodd" d="M51.6 2.914c15.884.744 32.093.006 44.895 8.305 14.523 9.415 27.077 22.878 27.827 38.838.759 16.154-11.586 29.765-24.045 41.659-12.665 12.09-27.194 24.039-45.745 24.962-18.924.941-39.669-5.962-49.548-20.223-8.931-12.893 6.385-28.39 5.39-43.522C9.297 36.54-1.258 26.275 9.708 12.969 20.492-.115 33.382 2.061 51.6 2.914z" fill="#EEEFF1"/><path d="M82.226 76.977l-13.07 5.301 6.535 20.712c10.218-8.01 8.614-20.712 6.535-26.013z" fill="#79077B"/><path d="M69.453 82.376l-1.485.588 7.723 20.026-6.238-20.614zM45.735 56.21l-.66 1.444-19.881-8.557 20.541 7.113z" fill="#240644"/><path d="M51.783 44.152l-6.132 12.611-20.457-7.666c8.686-9.624 21.379-7.325 26.589-4.945z" fill="#79077B"/><path d="M43.313 61.171C64.939 4.157 96.186 5.026 119.059 12.094 131.795 58.5 87.192 80.5 65.888 83.75c-5.94-13.453-18.119-18.657-22.575-22.58z" fill="url(#gpaint0_linear_109_13827)"/><path d="M91.137 9.243c10.693-2.356 15.496-1.76 28.269 2.364 4.829 12.643 2.167 22.886.546 27.893-4.991-16.02-20.498-25.938-28.815-30.257z" fill="#79077B"/><path d="M102.315 41.343c0 8.385-6.858 15.198-15.337 15.198-8.478 0-15.337-6.813-15.337-15.198 0-8.385 6.859-15.197 15.337-15.197 8.479 0 15.337 6.812 15.337 15.197z" fill="#DDDDE2" stroke="url(#gpaint1_linear_109_13827)" stroke-width="2"/><path d="M86.978 53.809c7.054 0 12.773-5.67 12.773-12.663 0-6.994-5.719-12.664-12.773-12.664-7.054 0-12.772 5.67-12.772 12.664 0 6.993 5.718 12.663 12.772 12.663z" fill="#303C7A"/><path d="M65.82 83.753c-1.777 1.741-8.304-1.949-14.58-8.242-6.276-6.293-9.703-12.599-7.927-14.34 1.776-1.74 8.083 1.742 14.359 8.035s9.923 12.806 8.147 14.547z" fill="url(#gpaint2_linear_109_13827)"/><path d="M48.116 65.205l-7.773 3.232 18.713 17.67 2.97-6.48c-2.376-5.006-8.43-11.3-13.91-14.422z" fill="#79077B"/><path d="M45.534 81.691c5.247 5.038 11.08 7.506 13.026 5.513 1.947-1.994-.728-7.694-5.975-12.732-5.247-5.037-11.079-7.505-13.026-5.512-1.947 1.993.728 7.693 5.975 12.731z" fill="url(#gpaint3_linear_109_13827)"/><path d="M47.716 80.068c3.416 3.28 7.022 5.081 8.055 4.024 1.033-1.058-.899-4.573-4.315-7.853-3.416-3.28-7.022-5.081-8.055-4.023-1.033 1.057.9 4.573 4.315 7.852z" fill="url(#gpaint4_linear_109_13827)"/><path d="M27.867 91.21s-25.971-.164-10.99-2.356c14.22-2.08 20.77-7.252 32.515-12.354 1.26 1 .756.577 1.347 1.163-7.128 9.719-8.614 11.191-14.851 21.499-6.238 10.307-2.377-5.007-2.377-5.007L9.748 105.052l18.12-13.842z" fill="url(#gpaint5_linear_109_13827)"/><path opacity=".2" d="M95.89 15.82c9.267-8.011 18.119-5.596 23.466-3.83V4.629L85.493 6.69 31.135 38.496 20.74 55.575l21.684 22.676c-.297-2.65-2.377-6.773.297-7.362 1.782-.392 7.174 1.541 7.129 1.178-.297-2.356.475-9.66 10.693-16.492 10.218-6.832 10.069-3.445 15.743-7.068 5.12-3.268 8.912-1.767 11.882-10.013 2.97-8.245-3.862-12.663 7.723-22.676z" fill="url(#gpaint6_linear_109_13827)"/><defs><linearGradient id="gpaint0_linear_109_13827" x1="82.523" y1="17.88" x2="77.85" y2="76.492" gradientUnits="userSpaceOnUse"><stop stop-color="#F9943C"/><stop offset="1" stop-color="#ECC80A"/></linearGradient><linearGradient id="gpaint1_linear_109_13827" x1="98.266" y1="53.515" x2="80.646" y2="28.634" gradientUnits="userSpaceOnUse"><stop stop-color="#B8B8B8"/><stop offset="1" stop-color="#DBDBDB"/></linearGradient><linearGradient id="gpaint2_linear_109_13827" x1="46.633" y1="63.877" x2="61.103" y2="81.052" gradientUnits="userSpaceOnUse"><stop stop-color="#79077B"/><stop offset="1" stop-color="#380339"/></linearGradient><linearGradient id="gpaint3_linear_109_13827" x1="49.582" y1="85.081" x2="60.935" y2="97.343" gradientUnits="userSpaceOnUse"><stop stop-color="#A960AB"/><stop offset="1" stop-color="#571759"/></linearGradient><linearGradient id="gpaint4_linear_109_13827" x1="48.937" y1="81.085" x2="57.484" y2="90.998" gradientUnits="userSpaceOnUse"><stop stop-color="#530555"/><stop offset="1" stop-color="#220123"/></linearGradient><linearGradient id="gpaint5_linear_109_13827" x1="46.581" y1="79.43" x2="7.887" y2="106.541" gradientUnits="userSpaceOnUse"><stop stop-color="#EB5757"/><stop offset="1" stop-color="#FDBB11"/></linearGradient><linearGradient id="gpaint6_linear_109_13827" x1="28.759" y1="10.813" x2="80.622" y2="59.26" gradientUnits="userSpaceOnUse"><stop stop-color="#FFFEFE" stop-opacity="0"/><stop offset="1" stop-color="#FDFDFD"/></linearGradient></defs></svg><svg fill="none" viewBox="0 0 80 80" id="gamedev" xmlns="http://www.w3.org/2000/svg"><path d="M20 10V9a1 1 0 00-1 1h1zm40 0h1a1 1 0 00-1-1v1zm0 60v1a1 1 0 001-1h-1zm-40 0h-1a1 1 0 001 1v-1zm0-59h40V9H20v2zm40 58H20v2h40v-2zm-39 1V22.5h-2V70h2zm0-47.5V10h-2v12.5h2zM59 10v12.5h2V10h-2zm0 12.5V70h2V22.5h-2zm-39 1h40v-2H20v2zM37.715 37.667l-.867.497a1 1 0 00.867.503v-1zm4.57 0v1a1 1 0 00.865-.499l-.865-.501zM41.3 53l.405-.914L41.3 53zm2.25 6a1 1 0 102 0h-2zm-10.7-13C30.195 46 28 43.785 28 41h-2c0 3.842 3.043 7 6.85 7v-2zM28 41c0-2.785 2.195-5 4.85-5v-2C29.043 34 26 37.158 26 41h2zm24 0c0 1.467-.436 2.73-1.16 3.606-.709.86-1.728 1.394-3.04 1.394v2c1.919 0 3.5-.809 4.583-2.12C53.452 44.583 54 42.846 54 41h-2zm-4.85-5c2.655 0 4.85 2.215 4.85 5h2c0-3.842-3.043-7-6.85-7v2zm-9.435 2.667h4.57v-2h-4.57v2zM32.85 36c1.835 0 3.18.74 3.998 2.164l1.734-.995C37.366 35.05 35.314 34 32.85 34v2zm10.3 2.168c.823-1.418 2.178-2.168 4-2.168v-2c-2.458 0-4.513 1.066-5.73 3.165l1.73 1.003zM32.85 48H40v-2h-7.15v2zM40 48h7.8v-2H40v2zm0-1h-1V49.668h2v-.006-.007-.006-.006-.006-.006-.006-.007-.006-.006-.006-.006-.007-.006-.006-.007-.006-.006-.007-.006-.006-.007-.006-.006-.007-.006-.007-.006-.007-.006-.006-.007-.006-.007-.006-.007-.006-.007-.007-.006-.007-.006-.007-.006-.007-.007-.006-.007-.006-.007-.007-.006-.007-.007-.006-.007-.007-.006-.007-.007-.007-.006-.007-.007-.007-.006-.007-.007-.007-.007-.006-.007-.007-.007-.007-.006-.007-.007-.007-.007-.007-.007-.006-.007-.007-.007-.007-.007-.007-.007-.007-.006-.007-.007-.007-.007-.007-.007-.007-.007V49v-.007-.007-.007-.007-.007-.007-.007-.007-.006-.008-.006-.007-.007-.007-.007-.007-.007-.007-.007-.007-.007-.007-.007-.007-.007-.007-.007-.007-.007-.007-.007-.007-.007-.007-.007-.007-.007-.007-.007-.007-.007-.007-.007-.007-.007-.007-.007-.007-.007-.007-.007-.007-.007-.007-.007-.007-.007-.007-.007-.007-.007-.007-.007-.007-.007-.007-.007-.007-.007-.007-.007-.007-.007-.007-.007-.006-.007-.007-.007-.007-.007-.007-.007-.007-.006-.007-.007-.007-.007-.007-.007-.007-.006-.007-.007-.007-.007-.006-.007-.007-.007-.007-.007-.006-.007-.007-.006-.007-.007-.007-.006-.007-.007-.007-.006-.007-.007-.006-.007-.007-.006-.007-.006-.007-.007-.006-.007-.006-.007-.007-.006-.007-.006-.007-.006-.007-.006-.007-.006-.007-.006-.006-.007-.006-.007V48v-.007-.006-.006-.007-.006-.006-.007-.006-.006-.006-.007-.006-.006-.007-.006-.006-.006-.006-.006-.007-.006-.006-.006-.006-.006-.006-.006-.006-.006-.006-.006-.006-.006-.006-.006-.006-.006-.006-.006-.006-.006-.006-.005-.006-.006-.006-.006-.005-.006-.006-.005-.006-.006-.006-.005-.006-.005-.006-.006-.005-.006-.005-.006-.005-.006-.005-.006-.005-.005-.006-.005-.005-.006-.005-.005-.006-.005-.005-.005-.006-.005-.005-.005-.005-.005-.005-.006-.005-.005-.005-.005-.005-.004-.005-.005-.005-.005-.005-.005-.005-.004-.005-.005-.005-.004-.005-.005-.004-.005-.004-.005-.005-.004-.005-.004-.005-.004-.004-.005-.004-.005-.004-.004-.004-.005-.004-.004-.004-.004-.005-.004-.004-.004-.004-.004-.004-.004-.004-.004-.004-.003-.004-.004-.004-.004-.003-.004-.004-.003-.004-.004-.003-.004-.003-.004-.003-.004-.003-.004-.003-.003-.004-.003-.003-.004-.003-.003-.003-.003-.003-.003-.003-.003-.003-.003-.003-.003-.003-.003-.003-.003-.002-.003-.003-.002-.003-.003-.002-.003-.002-.003-.002-.003-.002-.002-.003-.002-.003-.002-.002-.002-.002-.002-.002-.003-.002-.002-.002-.002-.002-.001-.002-.002-.002-.002-.001-.002-.002-.001-.002-.001-.002-.001-.002-.001-.002-.001-.001-.002-.002-.001-.002-.002-.002-.002-.002-.001-.001-.001-.001-.001-.001-.001-.001V47 47h-1zm-1 2.667c0 .679.031 1.508.255 2.258.23.773.7 1.573 1.64 1.99l.81-1.83c-.225-.1-.405-.3-.533-.731-.136-.454-.172-1.033-.172-1.687h-2zm1.895 4.247c.166.074.371.11.448.125.122.023.276.049.428.075.319.054.682.119 1.03.205.36.09.63.186.788.277.2.115-.039.054-.039-.263h2c0-.809-.607-1.266-.967-1.472-.402-.23-.886-.38-1.3-.483a16.003 16.003 0 00-1.176-.236l-.392-.068c-.143-.027-.098-.027-.01.012l-.81 1.828zm2.655.42V59h2v-.001-.001-.001-.002-.002-.001-.001-.001-.001-.001-.001-.001-.001-.002-.002-.001-.002-.001-.002-.001-.002-.001-.002-.002-.001-.002-.002-.002-.002-.002-.001-.002-.003-.002-.002-.002-.002-.002-.003-.002-.003-.002-.002-.003-.003-.002-.003-.003-.002-.003-.003-.003-.003-.003-.003-.003-.003-.003-.003-.003-.004-.003-.003-.004-.003-.003-.004-.003-.004-.004-.003-.004-.004-.003-.004-.004-.004-.004-.004-.004-.004-.004-.004-.005-.004-.004-.004-.005-.004-.004-.005-.004-.005-.005-.004-.005-.004-.005-.005-.005-.005-.005-.004-.005-.005-.005-.006-.005-.005-.005-.005-.005-.006-.005-.006-.005-.005-.006-.006-.005-.006-.005-.006-.006-.006-.005-.006-.006-.006-.006-.006-.006-.006-.006-.006-.006-.007-.006-.006-.007-.006-.006-.007-.006-.007-.006-.007-.006-.007-.007-.006-.007-.007-.007-.007-.007-.007-.007-.007-.007-.007-.007-.007-.007-.007-.008-.007-.007-.008-.007-.007-.008-.007-.008-.008-.007-.008-.007-.008-.008-.008-.008-.007-.008-.008-.008-.008-.008-.008-.008-.008-.008-.009-.008-.008-.008-.009-.008-.008-.009-.008-.009-.008-.009-.008-.009-.009-.008-.009-.009-.009-.008-.01-.008-.009-.009-.009-.009-.009-.009-.01-.008-.01-.009-.009-.009-.01-.009-.009-.01-.009-.01-.009-.01-.009-.01-.009-.01-.01-.009-.01-.01-.01-.009-.01-.01-.01-.01-.01-.01-.01-.01-.01-.01-.01-.01-.01-.01-.01-.011-.01-.01-.011-.01-.01-.011-.01-.011-.01-.011-.011-.01-.011-.011-.01-.012-.01-.011-.011-.01-.012-.01-.012-.01-.012-.01-.012-.01-.012-.011-.011-.011-.012-.011-.011-.012-.01-.012-.012-.011-.012-.011-.012-.011-.012-.011-.012-.011-.012-.012-.012-.011-.012-.012-.012-.011-.012-.012-.012-.012-.012-.012-.012-.012-.012-.012-.013-.012-.012-.012-.012-.013-.012-.012-.012-.013-.012-.013-.012-.013-.012-.013-.012-.013-.012-.013-.013-.012-.013-.013-.012-.013-.013-.013-.012-.013-.013-.013-.013-.013-.013-.013-.013-.013-.013-.013-.013-.013-.013-.014-.013-.013-.013-.013-.014-.013-.013-.014-.013-.014-.013-.013-.014-.013-.014-.013-.014-.014-.013-.014-.013-.014-.014-.013-.014-.014-.014-.013-.014-.014-.014-.014-.014-.014-.014-.014-.014-.014-.014-.014-.014-.014-.014-.014-.014-.014-.014-.015-.014-.014-.014-.015-.014-.014-.015-.014-.014-.015-.014-.015-.014-.015-.014-.014-.015-.015-.014-.015-.014-.015-.015-.014-.015-.015-.014-.015-.015-.015-.014-.015-.015-.015-.015-.015-.015-.015-.015-.014-.015-.015-.015-.016-.015-.015-.015-.015-.015-.015-.015-.015-.016-.015-.015-.015-.015-.016-.015-.015-.016-.015-.015-.016-.015-.015-.016-.015-.016-.015-.016-.015-.016-.015-.016-.015-.016-.015-.016-.016h-2zM34 38a1 1 0 10-2 0h2zm-2 6a1 1 0 102 0h-2zm-2-4a1 1 0 100 2v-2zm6 2a1 1 0 100-2v2zm-4-4v6h2v-6h-2zm-2 4h6v-2h-6v2zM48 38a1 1 0 11-2 0 1 1 0 012 0zM48 44a1 1 0 11-2 0 1 1 0 012 0zM45 41a1 1 0 11-2 0 1 1 0 012 0zM51 41a1 1 0 11-2 0 1 1 0 012 0z" fill="#E6E8EF"/></svg><svg fill="none" viewBox="0 0 32 32" id="google" xmlns="http://www.w3.org/2000/svg"><g clip-path="url(#iclip0_117_6651)"><path fill-rule="evenodd" clip-rule="evenodd" d="M22.458 8.73a8.695 8.695 0 00-6.138-2.398c-4.174 0-7.719 2.816-8.983 6.608a9.584 9.584 0 000 6.126h.006c1.27 3.786 4.809 6.602 8.983 6.602 2.155 0 4.005-.55 5.438-1.524v-.004a7.406 7.406 0 003.199-4.862H16.32v-6.161h15.092a18.81 18.81 0 01.276 3.25c0 4.867-1.739 8.981-4.765 11.768l.003.002C24.275 30.584 20.636 32 16.32 32c-6.05 0-11.582-3.41-14.298-8.813a16.014 16.014 0 010-14.368A15.997 15.997 0 0116.32 0a15.378 15.378 0 0110.706 4.163L22.458 8.73z" fill="#fff"/></g><defs><clipPath id="iclip0_117_6651"><path fill="#fff" d="M0 0h32v32H0z"/></clipPath></defs></svg><svg fill="none" viewBox="0 0 32 32" id="google-blue" xmlns="http://www.w3.org/2000/svg"><g clip-path="url(#jclip0_92_4424)"><path fill-rule="evenodd" clip-rule="evenodd" d="M22.458 8.73a8.695 8.695 0 00-6.138-2.398c-4.174 0-7.72 2.816-8.983 6.608a9.584 9.584 0 000 6.126h.006c1.27 3.786 4.809 6.602 8.983 6.602 2.155 0 4.005-.55 5.438-1.524v-.004a7.406 7.406 0 003.198-4.862H16.32v-6.161h15.092a18.82 18.82 0 01.276 3.25c0 4.867-1.74 8.981-4.765 11.768l.003.002C24.275 30.584 20.636 32 16.32 32c-6.05 0-11.582-3.41-14.298-8.813a16.014 16.014 0 010-14.368A15.997 15.997 0 0116.32 0a15.378 15.378 0 0110.706 4.163L22.458 8.73z" fill="#1E74EC"/></g><defs><clipPath id="jclip0_92_4424"><path fill="#fff" d="M0 0h32v32H0z"/></clipPath></defs></svg><svg fill="none" viewBox="0 0 32 32" id="instagram" xmlns="http://www.w3.org/2000/svg"><path d="M16 2.881c4.275 0 4.781.019 6.462.094 1.563.069 2.407.331 2.97.55a4.949 4.949 0 011.837 1.194 4.921 4.921 0 011.194 1.837c.218.563.48 1.413.55 2.969.074 1.688.093 2.194.093 6.463 0 4.274-.019 4.78-.094 6.462-.068 1.563-.33 2.406-.55 2.969a4.95 4.95 0 01-1.193 1.837 4.922 4.922 0 01-1.838 1.194c-.562.219-1.412.481-2.969.55-1.687.075-2.193.094-6.462.094-4.275 0-4.781-.019-6.463-.094-1.562-.069-2.406-.331-2.968-.55a4.949 4.949 0 01-1.838-1.194 4.922 4.922 0 01-1.193-1.837c-.22-.563-.482-1.413-.55-2.969-.075-1.688-.094-2.194-.094-6.462 0-4.275.018-4.782.093-6.463.07-1.563.332-2.406.55-2.969A4.948 4.948 0 014.732 4.72 4.921 4.921 0 016.57 3.525c.562-.219 1.412-.481 2.968-.55C11.22 2.9 11.726 2.881 16 2.881zM16 0c-4.344 0-4.887.019-6.594.094-1.7.075-2.869.35-3.881.744-1.056.412-1.95.956-2.838 1.85-.893.887-1.437 1.78-1.85 2.83C.444 6.539.17 7.7.094 9.4.019 11.113 0 11.656 0 16c0 4.344.019 4.887.094 6.594.075 1.7.35 2.868.744 3.881.412 1.056.956 1.95 1.85 2.837a7.822 7.822 0 002.83 1.844c1.02.394 2.182.669 3.882.744 1.706.075 2.25.094 6.594.094 4.343 0 4.887-.019 6.593-.094 1.7-.075 2.87-.35 3.882-.744a7.822 7.822 0 002.831-1.843 7.822 7.822 0 001.844-2.832c.394-1.019.669-2.181.744-3.881.074-1.706.093-2.25.093-6.594s-.019-4.887-.094-6.594c-.075-1.7-.35-2.868-.743-3.88a7.494 7.494 0 00-1.831-2.845A7.82 7.82 0 0026.48.845C25.462.45 24.3.175 22.6.1 20.887.019 20.344 0 16 0z" fill="#fff"/><path d="M16 7.781A8.22 8.22 0 007.781 16 8.22 8.22 0 0016 24.219 8.22 8.22 0 0024.219 16 8.22 8.22 0 0016 7.781zm0 13.55a5.332 5.332 0 11.001-10.664A5.332 5.332 0 0116 21.331zM26.462 7.456a1.92 1.92 0 11-3.838 0 1.92 1.92 0 013.838 0z" fill="#fff"/></svg><svg fill="none" viewBox="0 0 32 32" id="linkedin" xmlns="http://www.w3.org/2000/svg"><path d="M29.631 0H2.363C1.056 0 0 1.031 0 2.306v27.382C0 30.962 1.056 32 2.362 32h27.27C30.936 32 32 30.962 32 29.694V2.306C32 1.031 30.937 0 29.631 0zM9.494 27.269h-4.75V11.994h4.75v15.275zM7.119 9.912a2.751 2.751 0 01-2.756-2.75 2.751 2.751 0 012.756-2.75 2.75 2.75 0 010 5.5zm20.15 17.357h-4.744v-7.425c0-1.769-.031-4.05-2.469-4.05-2.469 0-2.844 1.931-2.844 3.925v7.55h-4.737V11.994h4.55v2.087h.063c.63-1.2 2.18-2.468 4.487-2.468 4.806 0 5.694 3.162 5.694 7.274v8.382z" fill="#fff"/></svg><svg fill="none" viewBox="0 0 32 32" id="linkedin-blue" xmlns="http://www.w3.org/2000/svg"><path d="M29.631 0H2.363C1.056 0 0 1.031 0 2.306v27.382C0 30.962 1.056 32 2.362 32h27.27C30.936 32 32 30.962 32 29.694V2.306C32 1.031 30.937 0 29.631 0zM9.494 27.269h-4.75V11.994h4.75v15.275zM7.119 9.912a2.751 2.751 0 01-2.756-2.75 2.751 2.751 0 012.756-2.75 2.75 2.75 0 010 5.5zm20.15 17.357h-4.744v-7.425c0-1.769-.031-4.05-2.469-4.05-2.469 0-2.844 1.931-2.844 3.925v7.55h-4.737V11.994h4.55v2.087h.063c.63-1.2 2.18-2.468 4.487-2.468 4.806 0 5.694 3.162 5.694 7.274v8.382z" fill="#1E74EC"/></svg><svg fill="none" viewBox="0 0 32 32" id="linkedin-tag" xmlns="http://www.w3.org/2000/svg"><path fill="#fff" d="M0 0h32v32H0z"/><path d="M6.644 9.596a2.917 2.917 0 100-5.835 2.917 2.917 0 000 5.835zM12.316 11.807v16.185h5.025v-8.004c0-2.112.397-4.157 3.016-4.157 2.583 0 2.615 2.414 2.615 4.29v7.872H28v-8.876c0-4.36-.939-7.71-6.035-7.71-2.447 0-4.087 1.342-4.757 2.613h-.068v-2.213h-4.824zm-8.19 0H9.16v16.185H4.126V11.807z" fill="#79077B"/></svg><svg fill="none" viewBox="0 0 41 16" id="lr-arrow" xmlns="http://www.w3.org/2000/svg"><path d="M40.707 8.707a1 1 0 000-1.414L34.343.929a1 1 0 10-1.414 1.414L38.586 8l-5.657 5.657a1 1 0 001.414 1.414l6.364-6.364zM0 9h40V7H0v2z" fill="#A960AB"/></svg><svg fill="none" viewBox="0 0 64 64" id="play" xmlns="http://www.w3.org/2000/svg"><circle cx="32" cy="32" r="31" stroke="#fff" stroke-width="2"/><path d="M45.484 32L26.807 42.783V21.217L45.484 32z" stroke="#fff" stroke-width="2"/></svg><svg fill="none" viewBox="0 0 80 80" id="server" xmlns="http://www.w3.org/2000/svg"><path d="M20 10V9a1 1 0 00-1 1h1zm40 0h1a1 1 0 00-1-1v1zm0 60v1a1 1 0 001-1h-1zm-40 0h-1a1 1 0 001 1v-1zm6-40v-1a1 1 0 00-1 1h1zm28 0h1a1 1 0 00-1-1v1zm0 14v1a1 1 0 001-1h-1zm-28 0h-1a1 1 0 001 1v-1zm0 6v-1a1 1 0 00-1 1h1zm28 0h1a1 1 0 00-1-1v1zm0 14v1a1 1 0 001-1h-1zm-28 0h-1a1 1 0 001 1v-1zm-6-53h40V9H20v2zm39-1v60h2V10h-2zm1 59H20v2h40v-2zm-39 1V10h-2v60h2zm32-50a3 3 0 01-3 3v2a5 5 0 005-5h-2zm-3 3a3 3 0 01-3-3h-2a5 5 0 005 5v-2zm-3-3a3 3 0 013-3v-2a5 5 0 00-5 5h2zm3-3a3 3 0 013 3h2a5 5 0 00-5-5v2zm-1 19a1 1 0 01-1 1v2a3 3 0 003-3h-2zm-1 1a1 1 0 01-1-1h-2a3 3 0 003 3v-2zm-1-1a1 1 0 011-1v-2a3 3 0 00-3 3h2zm1-1a1 1 0 011 1h2a3 3 0 00-3-3v2zm-22-4h28v-2H26v2zm27-1v14h2V30h-2zm1 13H26v2h28v-2zm-27 1V30h-2v14h2zm22 12a1 1 0 01-1 1v2a3 3 0 003-3h-2zm-1 1a1 1 0 01-1-1h-2a3 3 0 003 3v-2zm-1-1a1 1 0 011-1v-2a3 3 0 00-3 3h2zm1-1a1 1 0 011 1h2a3 3 0 00-3-3v2zm-22-4h28v-2H26v2zm27-1v14h2V50h-2zm1 13H26v2h28v-2zm-27 1V50h-2v14h2z" fill="#E6E8EF"/></svg><svg fill="none" viewBox="0 0 80 63" id="skolkovo" xmlns="http://www.w3.org/2000/svg"><path fill-rule="evenodd" clip-rule="evenodd" d="M0 31.5V63h80V0H0v31.5zM40.356 2.269l37.366.022v58.704H1.701l.011-29.312c.006-16.122.081-29.382.166-29.467.084-.085.37-.113.632-.062.264.051 17.294.103 37.846.115zM15.84 17.076c-1.816.561-4.048 2.75-4.327 4.243-.757 4.06 1.26 6.242 7.56 8.18 4.74 1.458 6.591 3.164 6.129 5.644-.937 5.024-11.478 4.564-12.29-.536-.26-1.635-2.095-1.715-2.095-.091 0 6.476 12.295 8.549 15.88 2.678 2.408-3.944-.112-7.521-6.77-9.609-5.244-1.645-6.263-2.47-6.263-5.069 0-5.426 10.582-5.069 11.31.382.15 1.133.177 1.157 1.293 1.157h1.14l-.18-1.328c-.64-4.692-5.954-7.33-11.387-5.65zm15.476 11.56v11.741h1.906l.194-3.88c.106-2.134.118-4.003.026-4.152-.094-.154.306-.272.92-.272 1.057 0 1.188.122 4.454 4.152l3.366 4.152h1.257c1.667 0 1.76.194-2.317-4.833-1.964-2.422-3.532-4.567-3.486-4.767.047-.2 1.527-1.984 3.288-3.966 3.72-4.186 3.588-3.902 1.815-3.902H41.35l-3.095 3.57c-2.539 2.928-3.237 3.572-3.879 3.58l-.783.01V16.894h-2.277v11.741zm-19.36 17.837c-1.531.776-1.05 2.46.868 3.038 1.023.308 1.15.44 1.071 1.12-.093.813-1.351 1.059-2.58.505-.737-.333-.62.324.131.728 1.446.778 3.357.013 3.357-1.345 0-.832-.7-1.534-1.736-1.743-1.986-.4-1.828-1.968.176-1.741 1.42.16 1.653-.093.55-.598-.894-.41-.957-.409-1.837.036zm10.258.26c-3.145 2.136-.527 6.654 2.936 5.067 1.133-.52 1.702-2.045 1.303-3.497a2.758 2.758 0 00-4.239-1.57zm16.721-.18c-2.708 1.478-1.72 5.565 1.344 5.565 2.929 0 3.994-3.914 1.484-5.453-1.078-.661-1.771-.689-2.828-.112zm11.69.042c-2.078 1.297-1.788 4.447.499 5.407 3.194 1.343 5.524-3.47 2.57-5.307-1.142-.709-2.045-.739-3.068-.1zm-34.398 2.66c0 1.718.114 2.863.284 2.863.157 0 .285-.5.285-1.11 0-1.904.666-2.036 1.763-.348.518.796 1.102 1.45 1.298 1.453.534.008.448-.227-.64-1.751-1.203-1.683-1.195-1.49-.12-2.856 1.237-1.57.483-1.39-1.028.245l-1.257 1.36-.008-1.36c-.004-.748-.136-1.36-.293-1.36-.17 0-.284 1.145-.284 2.864zm11.672 0v2.863h1.85c2.208 0 2.494-.506.357-.63l-1.495-.086-.082-2.505c-.114-3.48-.63-3.188-.63.358zm4.84 0c0 1.718.114 2.863.285 2.863.157 0 .285-.5.285-1.11 0-1.79.625-2 1.676-.56.488.665.886 1.314.886 1.44 0 .127.26.23.578.23.511 0 .444-.18-.569-1.53-1.376-1.833-1.372-1.788-.273-3.13 1.25-1.526.555-1.32-.99.293l-1.302 1.36-.003-1.36c-.002-.748-.132-1.36-.288-1.36-.17 0-.285 1.145-.285 2.864zm11.411-1.382c.331.838.817 2.104 1.08 2.811.763 2.05 1.21 1.824 2.403-1.21 1.178-2.992 1.198-3.083.672-3.083-.217 0-.718.983-1.175 2.303-.914 2.64-.891 2.641-1.877-.1-.472-1.313-.916-2.094-1.223-2.153-.432-.085-.42.06.12 1.432zm-18.99-.541c.891.656.938 2.615.082 3.476-1.503 1.512-3.606.575-3.606-1.608 0-1.88 2.038-2.961 3.523-1.868zm16.291-.15c1.672 1.123.843 4.363-1.116 4.363-1.894 0-2.964-2.654-1.617-4.009.57-.572 2.11-.772 2.733-.353zm12.071.354c1.92 1.932-.783 5.252-2.757 3.387-1.42-1.342-.54-3.96 1.334-3.96.474 0 1.107.255 1.423.573z" fill="#fff"/></svg><svg fill="none" viewBox="0 0 48 48" id="stop" xmlns="http://www.w3.org/2000/svg"><circle cx="24" cy="24" r="22" stroke="#989AA9" stroke-width="2"/><path d="M18 13a1 1 0 112 0v22a1 1 0 11-2 0V13zM28 13a1 1 0 112 0v22a1 1 0 11-2 0V13z" fill="#989AA9"/></svg><svg fill="none" viewBox="0 0 80 80" id="team" xmlns="http://www.w3.org/2000/svg"><path d="M27.324 71h-1v1h1v-1zm26.63 0v1h.914l.083-.91-.996-.09zm18.923-4.444v1h.914l.082-.91-.996-.09zM7 66.556H6v1h1v-1zm47.042 0l-.999.046.999-.046zM32.61 55.68l.283.96-.283-.96zM27.324 72h26.63v-2h-26.63v2zm46.549-5.355c.24-2.659.21-6.675-.696-10.07-.452-1.696-1.144-3.317-2.2-4.53C69.892 50.8 68.434 50 66.569 50v2c1.218 0 2.148.496 2.899 1.358.777.893 1.365 2.188 1.777 3.733.823 3.087.863 6.849.636 9.375l1.992.18zM66.569 50H53.254v2h13.315v-2zm-39.245 0H14.008v2h13.316v-2zm-13.316 0c-2.029 0-3.605.754-4.778 1.993-1.143 1.209-1.859 2.83-2.319 4.522C5.994 59.89 6 63.916 6 66.555h2c0-2.694.006-6.444.841-9.515.416-1.53 1.014-2.797 1.842-3.672.798-.844 1.85-1.368 3.325-1.368v-2zm40.034 17.556h18.835v-2H54.042v2zm.909 3.534c.116-1.296.168-2.896.09-4.58l-1.998.092c.074 1.59.025 3.1-.084 4.308l1.992.18zm.09-4.58c-.121-2.625-.56-5.552-1.623-7.858-1.073-2.326-2.89-4.208-5.77-4.208v2c1.796 0 3.057 1.102 3.954 3.045.905 1.964 1.325 4.592 1.441 7.113l1.998-.093zM53.254 50c-1.73 0-3.143.548-4.258 1.499-1.096.934-1.85 2.209-2.377 3.588l1.868.714c.453-1.186 1.048-2.134 1.806-2.78.74-.63 1.687-1.021 2.96-1.021v-2zm-5.607 4.444h-.094v2h.094v-2zm-.094 0H34.332v2h13.22v-2zm-13.999.904C32.56 52.524 30.675 50 27.324 50v2c2.063 0 3.45 1.474 4.344 4.012l1.886-.664zm.778-.904c-.717 0-1.384.094-2.004.277l.566 1.918a5.06 5.06 0 011.438-.195v-2zm-2.004.277c-2.366.697-3.773 2.597-4.609 4.752-.833 2.15-1.163 4.705-1.299 7.024l1.997.117c.132-2.253.447-4.56 1.167-6.418.718-1.852 1.774-3.104 3.31-3.557l-.566-1.918zM26.42 66.497c-.097 1.656-.096 3.234-.096 4.503h2c0-1.274 0-2.796.093-4.386l-1.997-.117zM7 67.556h20.419v-2H7v2z" fill="#E6E8EF"/><mask id="ta" fill="#fff"><path d="M27.976 39.4c0 4.64-3.8 8.4-8.488 8.4S11 44.04 11 39.4c0-4.64 3.8-8.4 8.488-8.4s8.488 3.76 8.488 8.4zM49.195 43.6c0 4.64-3.8 8.4-8.488 8.4-4.687 0-8.488-3.76-8.488-8.4 0-4.64 3.8-8.4 8.488-8.4s8.488 3.76 8.488 8.4zM69 39.4c0 4.64-3.8 8.4-8.488 8.4s-8.488-3.76-8.488-8.4c0-4.64 3.8-8.4 8.488-8.4S69 34.76 69 39.4z"/></mask><path d="M25.976 39.4c0 3.515-2.885 6.4-6.488 6.4v4c5.772 0 10.488-4.637 10.488-10.4h-4zm-6.488 6.4C15.885 45.8 13 42.915 13 39.4H9c0 5.763 4.715 10.4 10.488 10.4v-4zM13 39.4c0-3.515 2.885-6.4 6.488-6.4v-4C13.715 29 9 33.637 9 39.4h4zm6.488-6.4c3.603 0 6.488 2.885 6.488 6.4h4c0-5.763-4.716-10.4-10.488-10.4v4zm27.707 10.6c0 3.515-2.885 6.4-6.488 6.4v4c5.773 0 10.488-4.637 10.488-10.4h-4zM40.707 50c-3.602 0-6.488-2.885-6.488-6.4h-4c0 5.763 4.716 10.4 10.488 10.4v-4zm-6.488-6.4c0-3.515 2.886-6.4 6.488-6.4v-4c-5.772 0-10.488 4.637-10.488 10.4h4zm6.488-6.4c3.603 0 6.488 2.885 6.488 6.4h4c0-5.763-4.715-10.4-10.488-10.4v4zM67 39.4c0 3.515-2.885 6.4-6.488 6.4v4C66.285 49.8 71 45.163 71 39.4h-4zm-6.488 6.4c-3.603 0-6.488-2.885-6.488-6.4h-4c0 5.763 4.716 10.4 10.488 10.4v-4zm-6.488-6.4c0-3.515 2.885-6.4 6.488-6.4v-4c-5.772 0-10.488 4.637-10.488 10.4h4zm6.488-6.4C64.115 33 67 35.885 67 39.4h4C71 33.637 66.285 29 60.512 29v4z" fill="#E6E8EF" mask="url(#ta)"/><path d="M40 6l2.919 8.983h9.445l-7.642 5.551 2.92 8.983L40 23.966l-7.641 5.551 2.919-8.983-7.642-5.551h9.445L40 6z" stroke="#E6E8EF" stroke-width="2" stroke-linejoin="round"/></svg><svg fill="none" viewBox="0 0 80 80" id="tech-task" xmlns="http://www.w3.org/2000/svg"><mask id="ua" fill="#fff"><path d="M60 70H20V10h20l20 21.198V70z"/></mask><path d="M40 31.198h-1a1 1 0 001 1v-1zM39 10v21.198h2V10h-2zm1 22.198h20v-2H40v2zM60 70v2a2 2 0 002-2h-2zm-40 0h-2a2 2 0 002 2v-2zm0-60V8a2 2 0 00-2 2h2zm20 0l1.455-1.373A2 2 0 0040 8v2zm20 21.198h2a2 2 0 00-.545-1.373L60 31.198zM60 68H20v4h40v-4zm-38 2V10h-4v60h4zm-2-58h20V8H20v4zm38 19.198V70h4V31.198h-4zm3.455-1.373l-20-21.198-2.91 2.745 20 21.199 2.91-2.746z" fill="#E6E8EF" mask="url(#ua)"/><path d="M31 41a1 1 0 100 2v-2zm22 2a1 1 0 100-2v2zm-22 6a1 1 0 100 2v-2zm22 2a1 1 0 100-2v2zm-22 6a1 1 0 100 2v-2zm22 2a1 1 0 100-2v2zM31 43h22v-2H31v2zm0 8h22v-2H31v2zm0 8h22v-2H31v2z" fill="#E6E8EF"/><circle cx="27" cy="42" r="1" fill="#E6E8EF"/><circle cx="27" cy="50" r="1" fill="#E6E8EF"/><circle cx="27" cy="58" r="1" fill="#E6E8EF"/></svg><svg fill="none" viewBox="0 0 80 80" id="vr" xmlns="http://www.w3.org/2000/svg"><path d="M35.5 49.333l-.864-.503a1 1 0 01.864-.497v1zm8 0v-1a1 1 0 01.862.493l-.862.507zM11.615 34l.972.234-.972-.234zm.151 13l.97-.24-.97.24zM35.5 48.333h8v2h-8v-2zM21.85 55c5.246 0 10.447-2.157 12.786-6.17l1.728 1.007C33.54 54.68 27.515 57 21.85 57v-2zm22.512-6.174c1.147 1.949 3.241 3.5 5.784 4.567C52.678 54.457 55.562 55 58.15 55v2c-2.844 0-5.991-.592-8.779-1.763-2.777-1.166-5.291-2.948-6.733-5.396l1.724-1.015zM21.85 25H40v2H21.85v-2zM40 25h19.8v2H40v-2zm-18.15 2c-2.837 0-4.854.723-6.29 1.923-1.445 1.207-2.414 2.99-2.973 5.311l-1.944-.468c.625-2.596 1.763-4.814 3.634-6.378C16.156 25.818 18.664 25 21.85 25v2zm-9.263 7.234C12.183 35.914 12 37.851 12 40h-2c0-2.253.19-4.356.643-6.234l1.944.468zM12 40c0 2.386.225 4.696.737 6.76l-1.942.48C10.235 44.981 10 42.502 10 40h2zm.737 6.76c.612 2.472 1.62 4.53 3.082 5.962C17.26 54.132 19.203 55 21.85 55v2c-3.134 0-5.592-1.05-7.429-2.849-1.814-1.776-2.957-4.218-3.625-6.91l1.942-.481zm-1.535-11.85c-.644-.291-1.07-.266-1.36-.155-.31.118-.635.398-.936.927-.615 1.083-.928 2.869-.86 4.782.07 1.907.509 3.716 1.187 4.827.337.552.677.843.971.96.254.102.595.125 1.1-.138l.924 1.774c-.937.487-1.888.573-2.767.221-.838-.335-1.47-1.013-1.935-1.774-.924-1.514-1.402-3.705-1.478-5.798-.075-2.087.243-4.3 1.12-5.843.446-.784 1.082-1.472 1.962-1.807.9-.343 1.888-.255 2.898.203l-.826 1.822zM69.5 40c0-2.152-.173-4.091-.563-5.774l1.948-.452c.435 1.876.615 3.976.615 6.226h-2zm-.563-5.774c-.54-2.325-1.48-4.104-2.898-5.308-1.41-1.196-3.402-1.918-6.24-1.918v-2c3.187 0 5.678.819 7.534 2.393 1.847 1.568 2.95 3.788 3.552 6.381l-1.948.452zM58.15 55c5.224 0 8.692-3.424 10.32-8.316l1.898.632C68.557 52.755 64.489 57 58.15 57v-2zm10.32-8.316c.683-2.049 1.03-4.336 1.03-6.684h2c0 2.54-.375 5.042-1.132 7.316l-1.898-.632zm.95-13.555c1.042-.588 2.081-.795 3.051-.516.96.276 1.656.972 2.138 1.782.945 1.585 1.278 3.938 1.181 6.149-.097 2.217-.639 4.551-1.692 6.11-.534.789-1.257 1.463-2.203 1.733-.972.278-1.995.075-2.995-.532l1.039-1.71c.645.392 1.093.409 1.407.32.341-.098.72-.377 1.095-.931.763-1.13 1.262-3.045 1.351-5.078.09-2.04-.245-3.936-.901-5.038-.318-.534-.656-.792-.973-.883-.306-.088-.786-.076-1.516.336l-.983-1.742z" fill="#E6E8EF"/><path d="M25 23c6.25-6.667 23.75-6.667 30 0" stroke="#E6E8EF" stroke-width="2" stroke-linecap="round"/><path d="M65.314 18.879a1 1 0 001.414-1.415l-1.414 1.415zm-.59-1.575l.382-.923-.383.924zm-3.062 0l.382.924-.382-.924zm-2.005.16a1 1 0 101.414 1.415l-1.414-1.415zm8.485-1.414a1 1 0 001.414-1.414l-1.414 1.414zm-1.888-2.441l.382-.924-.382.924zm-6.123 0l.383.924-.383-.924zm-3.303 1.027a1 1 0 001.415 1.414l-1.415-1.414zm14.85-1.121a1 1 0 001.414-1.415l-1.414 1.415zm-3.51-3.525l.382-.924-.383.924zm-9.95 0l.382.923-.383-.923zm-4.925 2.11a1 1 0 001.414 1.415L53.293 12.1zm13.435 5.365a5 5 0 00-1.622-1.084l-.766 1.847c.364.151.695.372.974.65l1.414-1.413zm-1.622-1.084A5 5 0 0063.192 16v2c.394 0 .785.078 1.148.228l.766-1.847zM63.192 16a5 5 0 00-1.913.38l.765 1.848A3 3 0 0163.192 18v-2zm-1.913.38a4.999 4.999 0 00-1.622 1.085l1.414 1.414c.279-.279.61-.5.973-.65l-.765-1.848zm8.277-1.744a9 9 0 00-2.92-1.95l-.765 1.847a7 7 0 012.271 1.517l1.414-1.414zm-2.92-1.95A9 9 0 0063.192 12v2c.92 0 1.83.181 2.68.533l.764-1.848zM63.192 12a9 9 0 00-3.444.685l.766 1.848A7.001 7.001 0 0163.192 14v-2zm-3.444.685a9.001 9.001 0 00-2.92 1.951l1.415 1.414a6.999 6.999 0 012.27-1.517l-.765-1.848zm13.344-.585a14 14 0 00-4.542-3.034l-.765 1.847a12 12 0 013.893 2.602l1.414-1.415zM68.55 9.067A14 14 0 0063.192 8v2a12 12 0 014.593.913l.765-1.847zM63.192 8a14 14 0 00-5.357 1.066l.765 1.847A12 12 0 0163.192 10V8zm-5.357 1.066a14 14 0 00-4.542 3.034l1.414 1.415a12 12 0 013.893-2.602l-.765-1.847zM33.572 44.6c-.192 0-.342-.048-.45-.144a.818.818 0 01-.234-.36L29.036 32.54a.442.442 0 01-.036-.162.366.366 0 01.378-.378h1.584c.168 0 .294.048.378.144a.551.551 0 01.18.252l3.042 9.27 3.024-9.27a.822.822 0 01.18-.252.535.535 0 01.396-.144h1.584c.096 0 .18.036.252.108a.341.341 0 01.126.27.442.442 0 01-.036.162l-3.852 11.556a.818.818 0 01-.234.36c-.108.096-.258.144-.45.144h-1.98zM41.83 44.6a.417.417 0 01-.305-.126.417.417 0 01-.126-.306V32.45c0-.132.042-.24.126-.324A.417.417 0 0141.83 32h4.662c1.452 0 2.598.336 3.438 1.008.84.672 1.26 1.65 1.26 2.934 0 .888-.222 1.626-.666 2.214-.432.588-1.014 1.014-1.746 1.278l2.628 4.59a.448.448 0 01.054.198.341.341 0 01-.126.27.345.345 0 01-.252.108h-1.638c-.204 0-.36-.054-.468-.162a1.485 1.485 0 01-.252-.324l-2.322-4.266H43.9v4.32c0 .12-.042.222-.126.306a.381.381 0 01-.306.126H41.83zm2.07-6.786h2.539c.732 0 1.278-.162 1.638-.486.36-.336.54-.804.54-1.404 0-.6-.18-1.068-.54-1.404-.348-.348-.894-.522-1.638-.522H43.9v3.816z" fill="#E6E8EF"/></svg></svg>